<?xml version="1.0" standalone="no"?>
<!DOCTYPE svg PUBLIC "-//W3C//DTD SVG 20010904//EN"
 "http://www.w3.org/TR/2001/REC-SVG-20010904/DTD/svg10.dtd">
<svg version="1.0" xmlns="http://www.w3.org/2000/svg"
 width="1024.000000pt" height="1024.000000pt" viewBox="0 0 1024.000000 1024.000000"
 preserveAspectRatio="xMidYMid meet">
<metadata>
Created by potrace 1.15, written by Peter Selinger 2001-2017
</metadata>
<g transform="translate(0.000000,1024.000000) scale(0.100000,-0.100000)"
fill="#000000" stroke="none">
<path d="M847 10230 c-128 -22 -289 -87 -398 -161 -93 -62 -213 -182 -275
-275 -64 -96 -104 -181 -141 -301 l-28 -88 0 -4285 0 -4285 28 -88 c60 -192
147 -336 279 -463 132 -126 307 -222 488 -266 82 -19 8558 -19 8640 0 193 47
361 141 501 281 150 151 238 313 280 518 19 89 19 210 17 4340 l-3 4248 -28
88 c-57 182 -130 308 -256 440 -121 127 -268 215 -458 274 l-88 28 -4255 1
c-2340 1 -4277 -2 -4303 -6z m428 -2240 c55 -6 136 -15 180 -20 95 -10 129
-23 144 -57 7 -16 11 -128 11 -335 l0 -310 31 6 c45 9 165 72 299 155 143 90
422 229 555 275 272 95 422 121 660 113 161 -5 180 -8 415 -67 516 -130 781
-341 741 -590 -35 -214 -287 -497 -741 -832 -163 -120 -291 -204 -840 -553
-743 -472 -921 -593 -1056 -718 l-62 -57 512 -259 c281 -142 628 -320 771
-396 343 -182 1038 -527 1195 -594 248 -105 370 -181 370 -229 0 -75 -94 -218
-171 -257 -55 -29 -83 -20 -318 101 -124 64 -291 145 -371 179 -219 94 -744
344 -1234 588 -570 284 -820 397 -876 397 -20 0 -20 -4 -20 -1070 l0 -1070
-160 0 -160 0 0 1153 c0 633 -3 1898 -7 2811 -6 1631 -6 1658 13 1653 10 -3
64 -11 119 -17z m5927 -2090 c52 -15 97 -56 121 -109 16 -37 20 -65 19 -150
-5 -353 -157 -726 -539 -1320 -405 -628 -568 -964 -616 -1261 -19 -118 -31
-310 -20 -310 5 0 580 117 1278 261 1154 237 1277 260 1350 257 94 -4 134 -21
206 -85 145 -131 134 -282 -26 -349 -39 -16 -101 -28 -390 -75 -504 -81 -965
-164 -2485 -448 -234 -43 -436 -81 -450 -83 -23 -3 -25 1 -33 57 -20 135 33
407 142 734 108 324 231 613 481 1131 84 173 212 439 285 590 230 479 304 671
267 694 -5 3 -170 -59 -368 -138 -592 -236 -1027 -388 -1319 -462 l-143 -36
-44 20 c-63 28 -159 104 -194 154 -45 64 -57 103 -40 141 19 48 34 55 121 62
295 23 637 128 1439 441 511 200 542 211 806 283 48 13 108 13 152 1z"/>
<path d="M2990 7418 c-359 -33 -828 -195 -1115 -385 -128 -85 -261 -215 -269
-263 -9 -54 -74 -814 -86 -1000 -12 -191 -13 -310 -3 -310 3 0 14 7 23 15 8 8
135 76 280 151 510 262 927 495 1205 672 509 324 782 580 811 761 14 87 -44
189 -139 244 -59 35 -195 81 -310 106 -104 23 -225 26 -397 9z"/>
</g>
</svg>
